<?xml version="1.0" encoding="UTF-8" standalone="no"?>
<svg width="194px" height="117px" viewBox="0 0 194 117" version="1.1" xmlns="http://www.w3.org/2000/svg" xmlns:xlink="http://www.w3.org/1999/xlink">
    <!-- Generator: Sketch 44.1 (41455) - http://www.bohemiancoding.com/sketch -->
    <title>ruotsalaMiniLogo</title>
    <desc>Created with Sketch.</desc>
    <defs></defs>
    <g id="Page-1" stroke="none" stroke-width="1" fill="none" fill-rule="evenodd">
        <polygon id="Line" stroke="#FFFFFF" stroke-width="5" stroke-linecap="square" points="96.9127273 3 5 58.5 96.9127273 113.5 188.912727 58"></polygon>
        <path d="M88.2666016,47.6289062 L81.8544922,73.0380859 C83.3857498,73.2613943 84.6139277,73.3730469 85.5390625,73.3730469 C86.9427154,73.3730469 88.6813047,73.1337915 90.7548828,72.6552734 L90.2763672,75 C88.1389867,75.4466168 86.4801491,75.6699219 85.2998047,75.6699219 C84.0556578,75.6699219 82.2213663,75.5582693 79.796875,75.3349609 C77.6594945,75.1116525 75.8890044,75 74.4853516,75 C71.9332555,75 68.9824386,75.3668583 65.6328125,76.1005859 L66.3505859,73.4208984 C69.8597181,72.5276648 72.1406197,71.6503949 73.1933594,70.7890625 C74.7884194,69.4173108 76.0165973,67.0088063 76.8779297,63.5634766 L83.5771484,36.8144531 C84.4065797,33.4010246 84.8212891,31.3912791 84.8212891,30.7851562 C84.8212891,30.2109346 84.6219095,29.7802749 84.2231445,29.4931641 C83.8243795,29.2060533 83.0348366,29.0784504 81.8544922,29.1103516 L82.4765625,26.8134766 C85.6985838,26.7815754 89.5585713,26.191412 94.0566406,25.0429688 C93.6738262,26.2552144 93.179365,28.0416549 92.5732422,30.4023438 L88.984375,44.5185547 C90.5156327,44.8375667 91.8076119,44.9970703 92.8603516,44.9970703 C96.8480017,44.9970703 100.261379,43.6014137 103.100586,40.8100586 C105.939793,38.0187035 107.359375,34.7090035 107.359375,30.8808594 C107.359375,27.9140477 106.218924,25.4736424 103.937988,23.5595703 C101.657052,21.6454982 98.5547071,20.6884766 94.6308594,20.6884766 C89.6223708,20.6884766 84.7256099,21.900704 79.9404297,24.3251953 C75.1552495,26.7496866 71.5664182,29.7563297 69.1738281,33.3452148 C66.781238,36.9341 65.5849609,40.6904101 65.5849609,44.6142578 C65.5849609,47.5810695 66.8131388,50.1331273 69.2695312,52.2705078 C70.5136781,53.3232475 71.2792954,54.0888648 71.5664062,54.5673828 C71.8535171,55.0459008 71.9970703,55.5563124 71.9970703,56.0986328 C71.9970703,56.768558 71.7498397,57.3507462 71.2553711,57.8452148 C70.7609025,58.3396835 70.1627639,58.5869141 69.4609375,58.5869141 C67.7382726,58.5869141 66.2070379,57.5820413 64.8671875,55.5722656 C63.1445226,52.9563671 62.2832031,49.7343941 62.2832031,45.90625 C62.2832031,40.993465 63.6389838,36.4157113 66.3505859,32.1728516 C69.062188,27.9299918 73.1694061,24.4209123 78.6723633,21.6455078 C84.1753205,18.8701033 89.9732768,17.4824219 96.0664062,17.4824219 C101.74482,17.4824219 106.418276,18.5510961 110.086914,20.6884766 C113.755552,22.825857 115.589844,25.9840286 115.589844,30.1630859 C115.589844,34.0869337 113.907081,37.7395664 110.541504,41.1210938 C107.175927,44.5026211 102.542347,46.6718702 96.640625,47.6289062 C98.1080803,50.5638168 99.0491516,52.5416616 99.4638672,53.5625 C100.133792,55.2851649 101.154616,58.1881306 102.526367,62.2714844 C105.748389,71.8737459 109.082014,78.6366991 112.527344,82.5605469 C115.07944,85.431655 117.838852,86.8671875 120.805664,86.8671875 C123.868179,86.8671875 125.830074,85.4795061 126.691406,82.7041016 C127.201825,80.9495355 127.680336,79.8649109 128.126953,79.4501953 C128.733076,78.8759737 129.418941,78.5888672 130.18457,78.5888672 C130.950199,78.5888672 131.596189,78.8600233 132.122559,79.4023438 C132.648928,79.9446642 132.912109,80.598629 132.912109,81.3642578 C132.912109,83.3421323 131.827485,85.2242749 129.658203,87.0107422 C127.488921,88.7972095 124.697608,89.6904297 121.28418,89.6904297 C118.189763,89.6904297 115.230971,88.9407627 112.407715,87.4414062 C109.584459,85.9420498 106.840996,83.4856942 104.177246,80.0722656 C101.513496,76.6588371 99.1927182,72.5595942 97.2148438,67.7744141 C96.2259065,65.381824 94.7744236,60.9954746 92.8603516,54.6152344 C91.7119083,50.7232878 90.9941421,48.3945351 90.7070312,47.6289062 L89.5107422,47.5332031 C89.2236314,47.5332031 88.808922,47.5651038 88.2666016,47.6289062 Z" id="R" fill="#FFFFFF"></path>
        <path d="M132.445312,53.3320312 L131.337891,53.3320312 C131.40625,52.2656197 131.44043,51.411136 131.44043,50.7685547 C131.44043,48.8408107 131.040531,47.4975624 130.240723,46.7387695 C129.440914,45.9799767 128.432623,45.6005859 127.21582,45.6005859 C125.588859,45.6005859 123.900399,46.2602473 122.150391,47.5795898 C120.400382,48.8989324 118.896491,50.956529 117.638672,53.7524414 C116.380853,56.5483538 115.751953,59.4228368 115.751953,62.3759766 C115.751953,65.2334127 116.33642,67.4243088 117.505371,68.9487305 C118.674322,70.4731522 120.140616,71.2353516 121.904297,71.2353516 C124.296887,71.2353516 126.491201,69.799819 128.487305,66.9287109 C128.692384,66.6416001 128.904296,66.4980469 129.123047,66.4980469 C129.300782,66.4980469 129.451171,66.5561518 129.574219,66.6723633 C129.697266,66.7885748 129.758789,66.9218742 129.758789,67.0722656 C129.758789,67.4414081 129.304204,68.1660102 128.39502,69.2460938 C127.485835,70.3261773 126.340827,71.2250941 124.959961,71.9428711 C123.579095,72.6606481 122.218757,73.0195312 120.878906,73.0195312 C119.265617,73.0195312 117.768562,72.5991253 116.387695,71.7583008 C115.006829,70.9174763 113.933598,69.7177812 113.167969,68.1591797 C112.40234,66.6005781 112.019531,64.7480576 112.019531,62.6015625 C112.019531,59.6074069 112.802238,56.626968 114.367676,53.6601562 C115.933113,50.6933445 117.89159,48.4033284 120.243164,46.7900391 C122.594738,45.1767497 124.89159,44.3701172 127.133789,44.3701172 C127.940434,44.3701172 128.74023,44.4589835 129.533203,44.6367188 C129.875002,44.7187504 131.283191,45.1904254 133.757812,46.0517578 C132.978512,48.4033321 132.541016,50.8300656 132.445312,53.3320312 Z" id="C" fill="#FFFFFF"></path>
        <path d="M98.953125,84.5703125 L98.0039062,84.5703125 C98.0625003,83.6562454 98.0917969,82.9238309 98.0917969,82.3730469 C98.0917969,80.7206949 97.7490269,79.5693392 97.0634766,78.9189453 C96.3779263,78.2685514 95.5136771,77.9433594 94.4707031,77.9433594 C93.0761649,77.9433594 91.6289137,78.5087834 90.1289062,79.6396484 C88.6288988,80.7705135 87.3398491,82.5341677 86.2617188,84.9306641 C85.1835884,87.3271604 84.6445312,89.791003 84.6445312,92.3222656 C84.6445312,94.7714966 85.1455028,96.6494075 86.1474609,97.9560547 C87.1494191,99.2627018 88.4062424,99.9160156 89.9179688,99.9160156 C91.9687603,99.9160156 93.8496008,98.6855592 95.5605469,96.2246094 C95.736329,95.9785144 95.9179678,95.8554688 96.1054688,95.8554688 C96.2578133,95.8554688 96.3867182,95.9052729 96.4921875,96.0048828 C96.5976568,96.1044927 96.6503906,96.2187494 96.6503906,96.3476562 C96.6503906,96.6640641 96.2607461,97.2851516 95.4814453,98.2109375 C94.7021445,99.1367234 93.720709,99.9072235 92.5371094,100.522461 C91.3535097,101.137698 90.1875057,101.445312 89.0390625,101.445312 C87.6562431,101.445312 86.3730528,101.084965 85.1894531,100.364258 C84.0058535,99.6435511 83.0859408,98.6152411 82.4296875,97.2792969 C81.7734342,95.9433527 81.4453125,94.3554779 81.4453125,92.515625 C81.4453125,89.9492059 82.1162042,87.394544 83.4580078,84.8515625 C84.7998114,82.308581 86.4785055,80.34571 88.4941406,78.9628906 C90.5097757,77.5800712 92.478506,76.8886719 94.4003906,76.8886719 C95.0918003,76.8886719 95.7773404,76.964843 96.4570312,77.1171875 C96.7500015,77.1875004 97.9570206,77.5917932 100.078125,78.3300781 C99.4101529,80.3457132 99.0351567,82.4257705 98.953125,84.5703125 Z" id="C" fill="#FFFFFF"></path>
    </g>
</svg>