<?xml version="1.0" encoding="UTF-8" standalone="no"?>
<svg width="907px" height="354px" viewBox="0 0 907 354" version="1.1" xmlns="http://www.w3.org/2000/svg" xmlns:xlink="http://www.w3.org/1999/xlink">
    <!-- Generator: Sketch 44.1 (41455) - http://www.bohemiancoding.com/sketch -->
    <title>ruotsalaLogo</title>
    <desc>Created with Sketch.</desc>
    <defs></defs>
    <g id="Page-1" stroke="none" stroke-width="1" fill="none" fill-rule="evenodd">
        <ellipse id="Oval" stroke="#FFFFFF" stroke-width="8" cx="453.5" cy="176.702632" rx="449.5" ry="172.702632"></ellipse>
        <polyline id="Line" stroke="#FFFFFF" stroke-width="5" stroke-linecap="square" points="822.5 211 549.607728 195 454.037861 147 357.892272 195.5 85 211.5 357.892272 227.5 454.037861 276 549.607728 228 822.5 212"></polyline>
        <path d="M266.820312,95.78125 L257.398438,133.117188 C259.648449,133.445314 261.453118,133.609375 262.8125,133.609375 C264.87501,133.609375 267.429672,133.257816 270.476562,132.554688 L269.773438,136 C266.632797,136.656253 264.195321,136.984375 262.460938,136.984375 C260.632803,136.984375 257.937518,136.820314 254.375,136.492188 C251.234359,136.164061 248.632823,136 246.570312,136 C242.820294,136 238.4844,136.539057 233.5625,137.617188 L234.617188,133.679688 C239.773463,132.367181 243.124992,131.078131 244.671875,129.8125 C247.015637,127.796865 248.820306,124.257838 250.085938,119.195313 L259.929688,79.890625 C261.148444,74.8749749 261.757812,71.9218795 261.757812,71.03125 C261.757812,70.1874958 261.464847,69.5546896 260.878906,69.1328125 C260.292966,68.7109354 259.132821,68.5234373 257.398438,68.5703125 L258.3125,65.1953125 C263.046899,65.1484373 268.718717,64.2812584 275.328125,62.59375 C274.765622,64.3750089 274.039067,66.9999827 273.148438,70.46875 L267.875,91.2109375 C270.125011,91.6796898 272.02343,91.9140625 273.570312,91.9140625 C279.429717,91.9140625 284.445292,89.8633018 288.617188,85.7617188 C292.789083,81.6601357 294.875,76.7969031 294.875,71.171875 C294.875,66.8124782 293.199236,63.2265766 289.847656,60.4140625 C286.496077,57.6015484 281.937529,56.1953125 276.171875,56.1953125 C268.812463,56.1953125 261.617223,57.9765447 254.585938,61.5390625 C247.554652,65.1015803 242.281268,69.5195049 238.765625,74.7929688 C235.249982,80.0664326 233.492188,85.5859087 233.492188,91.3515625 C233.492188,95.7109593 235.296857,99.4609218 238.90625,102.601563 C240.734384,104.148445 241.859373,105.273434 242.28125,105.976563 C242.703127,106.679691 242.914062,107.429684 242.914062,108.226562 C242.914062,109.210942 242.550785,110.066403 241.824219,110.792969 C241.097653,111.519535 240.218755,111.882813 239.1875,111.882813 C236.656237,111.882813 234.40626,110.406265 232.4375,107.453125 C229.906237,103.609356 228.640625,98.8750281 228.640625,93.25 C228.640625,86.0312139 230.632793,79.3047187 234.617188,73.0703125 C238.601582,66.8359063 244.636678,61.6797079 252.722656,57.6015625 C260.808634,53.5234171 269.32808,51.484375 278.28125,51.484375 C286.625042,51.484375 293.492161,53.0546718 298.882812,56.1953125 C304.273464,59.3359532 306.96875,63.9765318 306.96875,70.1171875 C306.96875,75.8828413 304.496118,81.2499752 299.550781,86.21875 C294.605444,91.1875248 287.796918,94.374993 279.125,95.78125 C281.281261,100.093772 282.664059,102.999993 283.273438,104.5 C284.257817,107.031263 285.757802,111.296845 287.773438,117.296875 C292.507836,131.406321 297.406225,141.343721 302.46875,147.109375 C306.218769,151.328146 310.273416,153.4375 314.632812,153.4375 C319.132835,153.4375 322.015619,151.398458 323.28125,147.320313 C324.031254,144.742175 324.734372,143.148441 325.390625,142.539063 C326.281254,141.695308 327.289057,141.273438 328.414062,141.273438 C329.539068,141.273438 330.488277,141.671871 331.261719,142.46875 C332.03516,143.265629 332.421875,144.226557 332.421875,145.351563 C332.421875,148.257827 330.828141,151.023424 327.640625,153.648438 C324.453109,156.273451 320.351588,157.585938 315.335938,157.585938 C310.78904,157.585938 306.441427,156.484386 302.292969,154.28125 C298.144511,152.078114 294.113301,148.468775 290.199219,143.453125 C286.285137,138.437475 282.875015,132.414098 279.96875,125.382813 C278.515618,121.86717 276.382827,115.421922 273.570312,106.046875 C271.882804,100.328096 270.828127,96.9062556 270.40625,95.78125 L268.648438,95.640625 C268.22656,95.640625 267.617191,95.6874995 266.820312,95.78125 Z M364.179688,78.765625 L374.164062,78.765625 L367.554688,103.304688 C363.664043,117.554759 361.71875,125.664053 361.71875,127.632812 C361.71875,128.523442 361.929685,129.203123 362.351562,129.671875 C362.77344,130.140627 363.242185,130.375 363.757812,130.375 C364.554691,130.375 365.492182,130.023441 366.570312,129.320312 C368.117195,128.242182 371.046853,125.523459 375.359375,121.164062 L377.679688,123.765625 C368.257765,133.562549 361.320335,138.460938 356.867188,138.460938 C355.36718,138.460938 354.089849,137.886724 353.035156,136.738281 C351.980463,135.589838 351.453125,133.960948 351.453125,131.851562 C351.453125,129.41405 351.968745,126.15627 353,122.078125 C348.828104,126.859399 343.671906,131.054669 337.53125,134.664062 C333.453105,137.054699 329.914078,138.25 326.914062,138.25 C325.273429,138.25 323.98438,137.710943 323.046875,136.632812 C322.10937,135.554682 321.640625,133.843762 321.640625,131.5 C321.640625,129.671866 321.85156,127.703136 322.273438,125.59375 C322.882816,122.64061 324.429675,116.710982 326.914062,107.804688 C330.054703,96.507756 331.625,89.7343863 331.625,87.484375 C331.625,86.1718684 331.156255,85.515625 330.21875,85.515625 C329.374996,85.515625 328.22657,85.9492144 326.773438,86.8164062 C325.320305,87.6835981 322.835955,89.7812334 319.320312,93.109375 L316.226562,90.6484375 C322.507844,85.0234094 327.300765,81.33204 330.605469,79.5742188 C333.910173,77.8163975 336.570302,76.9375 338.585938,76.9375 C339.710943,76.9375 340.624996,77.3476521 341.328125,78.1679688 C342.031254,78.9882854 342.382812,80.2656163 342.382812,82 C342.382812,85.2343912 340.695329,93.1796242 337.320312,105.835938 C334.320298,117.226619 332.820312,123.718742 332.820312,125.3125 C332.820312,126.29688 333.136716,127.140621 333.769531,127.84375 C334.402347,128.546879 335.093746,128.898438 335.84375,128.898438 C338.468763,128.898438 342.195288,126.73049 347.023438,122.394531 C351.851587,118.058572 355.015617,113.125028 356.515625,107.59375 L364.179688,78.765625 Z M420.757812,76.8671875 C425.351585,76.8671875 429.17186,78.6952942 432.21875,82.3515625 C435.26564,86.0078308 436.789062,91.0937174 436.789062,97.609375 C436.789062,108.015677 433.132849,117.355427 425.820312,125.628906 C418.507776,133.902385 410.773478,138.039062 402.617188,138.039062 C397.601537,138.039062 393.558609,136.398454 390.488281,133.117188 C387.417953,129.835921 385.882812,125.359403 385.882812,119.6875 C385.882812,109.843701 388.695284,100.750042 394.320312,92.40625 C401.398473,82.0468232 410.210885,76.8671875 420.757812,76.8671875 Z M414.78125,82.140625 C410.796855,82.140625 406.941425,84.9882528 403.214844,90.6835938 C399.488263,96.3789347 397.625,104.242137 397.625,114.273438 C397.625,120.367218 398.773426,125.171857 401.070312,128.6875 C402.757821,131.265638 405.007798,132.554688 407.820312,132.554688 C411.757832,132.554688 415.343734,130.117212 418.578125,125.242188 C422.703146,118.914031 424.765625,111.062547 424.765625,101.6875 C424.765625,94.6562148 423.816416,89.64064 421.917969,86.640625 C420.019522,83.64061 417.640639,82.140625 414.78125,82.140625 Z M466.15625,66.0390625 L477.335938,61.75 L472.273438,81.4375 L486.828125,81.4375 L485.703125,86.4296875 L471.148438,86.4296875 L464.960938,109.984375 C463.039053,117.062535 462.078125,121.984361 462.078125,124.75 C462.078125,126.015631 462.347654,126.929685 462.886719,127.492188 C463.425784,128.05469 464.164058,128.335938 465.101562,128.335938 C466.554695,128.335938 468.781235,127.468759 471.78125,125.734375 C475.71877,123.437489 479.468732,120.835952 483.03125,117.929688 L485.703125,121.164062 C475.437449,128.898476 468.57033,133.632804 465.101562,135.367188 C461.632795,137.101571 458.843761,137.96875 456.734375,137.96875 C454.999991,137.96875 453.628911,137.335944 452.621094,136.070312 C451.613276,134.804681 451.109375,132.742202 451.109375,129.882812 C451.109375,126.507796 451.999991,121.351597 453.78125,114.414062 L461.023438,86.4296875 L449.632812,86.4296875 L450.898438,81.4375 L462.21875,81.4375 L466.15625,66.0390625 Z M526.390625,76.796875 C530.562521,76.796875 533.785145,77.6054607 536.058594,79.2226562 C538.332043,80.8398518 539.46875,82.7031145 539.46875,84.8125 C539.46875,86.0781313 538.988286,87.1796828 538.027344,88.1171875 C537.066401,89.0546922 535.906257,89.5234375 534.546875,89.5234375 C533.656246,89.5234375 532.882816,89.3242207 532.226562,88.9257812 C531.570309,88.5273418 530.632819,87.531258 529.414062,85.9375 C527.117176,82.8906098 524.843761,81.3671875 522.59375,81.3671875 C520.671865,81.3671875 518.972664,82.1054614 517.496094,83.5820312 C516.019524,85.0586011 515.28125,86.8984265 515.28125,89.1015625 C515.28125,91.0234471 515.749995,92.8867097 516.6875,94.6914062 C517.625005,96.4961028 519.992169,99.4140423 523.789062,103.445312 C528.992214,108.97659 531.59375,114.226538 531.59375,119.195312 C531.59375,124.164087 529.484396,128.5117 525.265625,132.238281 C521.046854,135.964862 515.609408,137.828125 508.953125,137.828125 C503.374972,137.828125 499.226576,136.691418 496.507812,134.417969 C493.789049,132.14452 492.429688,129.343767 492.429688,126.015625 C492.429688,124.374992 492.945307,123.01563 493.976562,121.9375 C495.007818,120.85937 496.27343,120.320312 497.773438,120.320312 C499.085944,120.320312 500.210933,120.753902 501.148438,121.621094 C502.085942,122.488286 502.554688,123.507807 502.554688,124.679688 C502.554688,125.14844 502.507813,125.757809 502.414062,126.507812 C502.367187,127.117191 502.34375,127.63281 502.34375,128.054688 C502.34375,129.60157 502.999993,130.914057 504.3125,131.992188 C505.578131,133.070318 507.312489,133.609375 509.515625,133.609375 C512.046888,133.609375 514.273428,133.175786 516.195312,132.308594 C518.117197,131.441402 519.617182,130.128915 520.695312,128.371094 C521.773443,126.613272 522.3125,124.867196 522.3125,123.132812 C522.3125,121.445304 521.808599,119.757821 520.800781,118.070312 C519.792964,116.382804 517.531268,113.593769 514.015625,109.703125 C509.140601,104.265598 506.703125,99.0390876 506.703125,94.0234375 C506.703125,89.4296645 508.554669,85.4101735 512.257812,81.9648438 C515.960956,78.519514 520.671846,76.796875 526.390625,76.796875 Z M592.53125,75.671875 L597.171875,74.6875 L591.898438,92.4765625 C589.789052,99.5547229 587.796884,107.710891 585.921875,116.945312 C584.89062,121.960963 584.375,125.195305 584.375,126.648438 C584.375,128.10157 584.960932,128.828125 586.132812,128.828125 C586.882816,128.828125 588.078117,128.335942 589.71875,127.351562 C592.625015,125.617179 595.414049,123.46095 598.085938,120.882812 L600.335938,123.625 C594.992161,128.500024 591.57032,131.45312 590.070312,132.484375 C587.070298,134.546885 584.210951,136.070308 581.492188,137.054688 C579.710929,137.710941 577.976571,138.039062 576.289062,138.039062 C575.070306,138.039062 574.156253,137.757815 573.546875,137.195312 C572.937497,136.63281 572.632812,135.812505 572.632812,134.734375 C572.632812,134.031246 572.820311,133.070319 573.195312,131.851562 L576.007812,122.289062 C571.976542,127.117212 567.171903,131.265608 561.59375,134.734375 C558.171858,136.890636 555.031264,137.96875 552.171875,137.96875 C549.453111,137.96875 547.367195,137.007822 545.914062,135.085938 C543.945303,132.5078 542.960938,129.132833 542.960938,124.960938 C542.960938,119.992163 544.285143,114.460968 546.933594,108.367188 C549.582044,102.273407 553.13279,96.7422123 557.585938,91.7734375 C562.039085,86.8046627 566.726538,83.1484492 571.648438,80.8046875 C575.445331,79.0234286 580.320283,78.1328125 586.273438,78.1328125 C587.773445,78.1328125 589.296867,78.2265616 590.84375,78.4140625 L592.53125,75.671875 Z M583.8125,86.4296875 C581.281237,85.9140599 579.148446,85.65625 577.414062,85.65625 C573.195291,85.65625 569.515641,86.8163946 566.375,89.1367188 C563.234359,91.4570429 560.31642,95.6288761 557.621094,101.652344 C554.925768,107.675811 553.578125,113.68747 553.578125,119.6875 C553.578125,122.875016 554.117182,125.171868 555.195312,126.578125 C556.273443,127.984382 557.679679,128.6875 559.414062,128.6875 C562.648454,128.6875 566.117169,126.941424 569.820312,123.449219 C573.523456,119.957014 576.242179,114.92972 577.976562,108.367188 L583.8125,86.4296875 Z M637.296875,119.054688 L639.6875,121.585938 C636.031232,125.710958 631.707056,129.472639 626.714844,132.871094 C621.722631,136.269548 617.609391,137.96875 614.375,137.96875 C612.921868,137.96875 611.726567,137.417974 610.789062,136.316406 C609.851558,135.214838 609.382812,133.703135 609.382812,131.78125 C609.382812,128.031231 610.835923,120.250059 613.742188,108.4375 L621.335938,77.5703125 C624.101576,66.4140067 626.421866,58.937519 628.296875,55.140625 C631.20314,49.3749712 635.31638,44.8984534 640.636719,41.7109375 C645.957058,38.5234216 651.570283,36.9296875 657.476562,36.9296875 C659.492198,36.9296875 661.074213,37.4101514 662.222656,38.3710938 C663.371099,39.3320361 663.945312,40.4921807 663.945312,41.8515625 C663.945312,43.35157 663.382818,44.5820264 662.257812,45.5429688 C661.132807,46.5039111 659.492198,46.984375 657.335938,46.984375 C655.92968,46.984375 653.937513,46.7500023 651.359375,46.28125 C649.109364,45.9062481 647.023447,45.71875 645.101562,45.71875 C643.179678,45.71875 641.726567,46.1171835 640.742188,46.9140625 C639.382806,48.0390681 638.152349,50.406232 637.050781,54.015625 C635.949213,57.625018 634.156262,64.7499468 631.671875,75.390625 L624.710938,104.851562 C621.24217,119.617261 619.507812,127.328122 619.507812,127.984375 C619.507812,129.484382 620.04687,130.234375 621.125,130.234375 C622.156255,130.234375 623.65624,129.625006 625.625,128.40625 C629.515644,125.968738 633.406231,122.851581 637.296875,119.054688 Z M693.523438,75.671875 L698.164062,74.6875 L692.890625,92.4765625 C690.781239,99.5547229 688.789072,107.710891 686.914062,116.945312 C685.882807,121.960963 685.367188,125.195305 685.367188,126.648438 C685.367188,128.10157 685.953119,128.828125 687.125,128.828125 C687.875004,128.828125 689.070304,128.335942 690.710938,127.351562 C693.617202,125.617179 696.406237,123.46095 699.078125,120.882812 L701.328125,123.625 C695.984348,128.500024 692.562508,131.45312 691.0625,132.484375 C688.062485,134.546885 685.203139,136.070308 682.484375,137.054688 C680.703116,137.710941 678.968758,138.039062 677.28125,138.039062 C676.062494,138.039062 675.148441,137.757815 674.539062,137.195312 C673.929684,136.63281 673.625,135.812505 673.625,134.734375 C673.625,134.031246 673.812498,133.070319 674.1875,131.851562 L677,122.289062 C672.96873,127.117212 668.16409,131.265608 662.585938,134.734375 C659.164045,136.890636 656.023452,137.96875 653.164062,137.96875 C650.445299,137.96875 648.359382,137.007822 646.90625,135.085938 C644.93749,132.5078 643.953125,129.132833 643.953125,124.960938 C643.953125,119.992163 645.277331,114.460968 647.925781,108.367188 C650.574232,102.273407 654.124978,96.7422123 658.578125,91.7734375 C663.031272,86.8046627 667.718725,83.1484492 672.640625,80.8046875 C676.437519,79.0234286 681.31247,78.1328125 687.265625,78.1328125 C688.765633,78.1328125 690.289055,78.2265616 691.835938,78.4140625 L693.523438,75.671875 Z M684.804688,86.4296875 C682.273425,85.9140599 680.140634,85.65625 678.40625,85.65625 C674.187479,85.65625 670.507828,86.8163946 667.367188,89.1367188 C664.226547,91.4570429 661.308607,95.6288761 658.613281,101.652344 C655.917955,107.675811 654.570312,113.68747 654.570312,119.6875 C654.570312,122.875016 655.10937,125.171868 656.1875,126.578125 C657.26563,127.984382 658.671866,128.6875 660.40625,128.6875 C663.640641,128.6875 667.109356,126.941424 670.8125,123.449219 C674.515644,119.957014 677.234366,114.92972 678.96875,108.367188 L684.804688,86.4296875 Z" id="Ruotsala" fill="#FFFFFF"></path>
        <path d="M447.384277,197.880859 L439.859863,227.697754 C441.656747,227.959799 443.097976,228.09082 444.183594,228.09082 C445.830737,228.09082 447.870919,227.810061 450.304199,227.248535 L449.742676,230 C447.234525,230.524091 445.28793,230.786133 443.902832,230.786133 C442.442864,230.786133 440.290379,230.655112 437.445312,230.393066 C434.937162,230.131021 432.859546,230 431.212402,230 C428.217596,230 424.754902,230.430497 420.824219,231.291504 L421.666504,228.146973 C425.784363,227.09879 428.460931,226.069341 429.696289,225.058594 C431.568043,223.448885 433.009272,220.622579 434.02002,216.57959 L441.881348,185.19043 C442.85466,181.184876 443.341309,178.826501 443.341309,178.115234 C443.341309,177.441403 443.107343,176.936037 442.639404,176.599121 C442.171466,176.262205 441.244961,176.112467 439.859863,176.149902 L440.589844,173.45459 C444.370787,173.417155 448.900364,172.724616 454.178711,171.376953 C453.72949,172.799486 453.149255,174.895819 452.437988,177.666016 L448.226562,194.230957 C450.023446,194.605308 451.539545,194.79248 452.774902,194.79248 C457.454288,194.79248 461.459782,193.15472 464.791504,189.87915 C468.123226,186.603581 469.789062,182.719749 469.789062,178.227539 C469.789062,174.746076 468.450778,171.882335 465.77417,169.63623 C463.097561,167.390125 459.457054,166.26709 454.852539,166.26709 C448.975231,166.26709 443.229032,167.689602 437.61377,170.534668 C431.998507,173.379734 427.787123,176.907938 424.979492,181.119385 C422.171861,185.330832 420.768066,189.738747 420.768066,194.343262 C420.768066,197.824724 422.209295,200.819486 425.091797,203.327637 C426.551765,204.562994 427.450194,205.461423 427.787109,206.022949 C428.124025,206.584475 428.29248,207.183428 428.29248,207.819824 C428.29248,208.605961 428.002363,209.289141 427.422119,209.869385 C426.841875,210.449629 426.139978,210.739746 425.316406,210.739746 C423.294912,210.739746 421.498055,209.560559 419.925781,207.202148 C417.904287,204.132472 416.893555,200.351585 416.893555,195.859375 C416.893555,190.094372 418.484522,184.722518 421.666504,179.743652 C424.848486,174.764786 429.668181,170.646989 436.125732,167.390137 C442.583284,164.133284 449.387009,162.504883 456.537109,162.504883 C463.200554,162.504883 468.684712,163.758939 472.989746,166.26709 C477.294781,168.77524 479.447266,172.481258 479.447266,177.385254 C479.447266,181.989769 477.472595,186.276022 473.523193,190.244141 C469.573792,194.212259 464.136428,196.757807 457.210938,197.880859 C458.932951,201.324887 460.03727,203.645827 460.523926,204.84375 C461.310063,206.865244 462.507967,210.271786 464.117676,215.063477 C467.898619,226.331437 471.810527,234.267555 475.853516,238.87207 C478.848322,242.241228 482.086408,243.925781 485.567871,243.925781 C489.161639,243.925781 491.463862,242.29738 492.474609,239.040527 C493.073571,236.981598 493.635089,235.708824 494.15918,235.222168 C494.870446,234.548336 495.675288,234.211426 496.57373,234.211426 C497.472172,234.211426 498.230222,234.529619 498.8479,235.166016 C499.465579,235.802412 499.774414,236.56982 499.774414,237.468262 C499.774414,239.789237 498.50164,241.997874 495.956055,244.094238 C493.410469,246.190603 490.134948,247.23877 486.129395,247.23877 C482.498191,247.23877 479.02614,246.359058 475.713135,244.599609 C472.40013,242.84016 469.180761,239.957702 466.054932,235.952148 C462.929102,231.946595 460.205741,227.136259 457.884766,221.520996 C456.724278,218.713365 455.021007,213.566118 452.774902,206.079102 C451.427239,201.512021 450.584963,198.779301 450.248047,197.880859 L448.844238,197.768555 C448.507323,197.768555 448.020674,197.805989 447.384277,197.880859 Z" id="R" fill="#FFFFFF"></path>
        <path d="M498.9375,205.09375 L497.671875,205.09375 C497.75,203.874994 497.789062,202.898441 497.789062,202.164062 C497.789062,199.960926 497.332036,198.425786 496.417969,197.558594 C495.503902,196.691402 494.351569,196.257812 492.960938,196.257812 C491.101553,196.257812 489.171885,197.011711 487.171875,198.519531 C485.171865,200.027351 483.453132,202.37889 482.015625,205.574219 C480.578118,208.769547 479.859375,212.054671 479.859375,215.429688 C479.859375,218.695329 480.527337,221.19921 481.863281,222.941406 C483.199225,224.683602 484.87499,225.554688 486.890625,225.554688 C489.625014,225.554688 492.132801,223.914079 494.414062,220.632812 C494.648439,220.304686 494.890624,220.140625 495.140625,220.140625 C495.343751,220.140625 495.515624,220.207031 495.65625,220.339844 C495.796876,220.472657 495.867188,220.624999 495.867188,220.796875 C495.867188,221.218752 495.347661,222.046869 494.308594,223.28125 C493.269526,224.515631 491.960945,225.542965 490.382812,226.363281 C488.80468,227.183598 487.250008,227.59375 485.71875,227.59375 C483.874991,227.59375 482.16407,227.113286 480.585938,226.152344 C479.007805,225.191401 477.781254,223.820321 476.90625,222.039062 C476.031246,220.257804 475.59375,218.140637 475.59375,215.6875 C475.59375,212.265608 476.488272,208.859392 478.277344,205.46875 C480.066415,202.078108 482.304674,199.460947 484.992188,197.617188 C487.679701,195.773428 490.304675,194.851562 492.867188,194.851562 C493.789067,194.851562 494.70312,194.953124 495.609375,195.15625 C496.000002,195.25 497.609361,195.789058 500.4375,196.773438 C499.546871,199.460951 499.046876,202.234361 498.9375,205.09375 Z" id="C" fill="#FFFFFF"></path>
        <path d="M459.28125,244.078125 L458.226562,244.078125 C458.291667,243.062495 458.324219,242.248701 458.324219,241.636719 C458.324219,239.800772 457.943363,238.521488 457.181641,237.798828 C456.419918,237.076168 455.459641,236.714844 454.300781,236.714844 C452.751294,236.714844 451.143237,237.343093 449.476562,238.599609 C447.809888,239.856126 446.37761,241.815742 445.179688,244.478516 C443.981765,247.141289 443.382812,249.878892 443.382812,252.691406 C443.382812,255.412774 443.939448,257.499342 445.052734,258.951172 C446.166021,260.403002 447.562492,261.128906 449.242188,261.128906 C451.520845,261.128906 453.610668,259.761732 455.511719,257.027344 C455.707032,256.753905 455.908853,256.617188 456.117188,256.617188 C456.286459,256.617188 456.429687,256.672525 456.546875,256.783203 C456.664063,256.893881 456.722656,257.020833 456.722656,257.164062 C456.722656,257.515627 456.289718,258.205724 455.423828,259.234375 C454.557938,260.263026 453.467454,261.119137 452.152344,261.802734 C450.837233,262.486332 449.541673,262.828125 448.265625,262.828125 C446.729159,262.828125 445.303392,262.427738 443.988281,261.626953 C442.673171,260.826168 441.651045,259.683601 440.921875,258.199219 C440.192705,256.714836 439.828125,254.950531 439.828125,252.90625 C439.828125,250.054673 440.57356,247.21616 442.064453,244.390625 C443.555346,241.56509 445.420562,239.384122 447.660156,237.847656 C449.899751,236.31119 452.087229,235.542969 454.222656,235.542969 C454.990889,235.542969 455.7526,235.627603 456.507812,235.796875 C456.833335,235.875 458.174467,236.324215 460.53125,237.144531 C459.789059,239.384126 459.372396,241.695301 459.28125,244.078125 Z" id="C" fill="#FFFFFF"></path>
        <path d="M137.429688,245.855469 L136.005859,245.855469 C136.09375,244.484368 136.137695,243.385746 136.137695,242.55957 C136.137695,240.081042 135.62354,238.354009 134.595215,237.378418 C133.566889,236.402827 132.270516,235.915039 130.706055,235.915039 C128.614247,235.915039 126.443371,236.763175 124.193359,238.459473 C121.943348,240.15577 120.009774,242.801252 118.392578,246.395996 C116.775383,249.990741 115.966797,253.686504 115.966797,257.483398 C115.966797,261.157245 116.718254,263.974111 118.221191,265.934082 C119.724129,267.894053 121.609364,268.874023 123.876953,268.874023 C126.95314,268.874023 129.774401,267.028339 132.34082,263.336914 C132.604494,262.967772 132.876952,262.783203 133.158203,262.783203 C133.38672,262.783203 133.580077,262.857909 133.738281,263.007324 C133.896485,263.156739 133.975586,263.328124 133.975586,263.521484 C133.975586,263.996096 133.391119,264.927727 132.222168,266.316406 C131.053217,267.705085 129.581064,268.860835 127.805664,269.783691 C126.030265,270.706548 124.281259,271.167969 122.558594,271.167969 C120.484365,271.167969 118.559579,270.627447 116.78418,269.546387 C115.00878,268.465327 113.628911,266.922862 112.644531,264.918945 C111.660151,262.915029 111.167969,260.533217 111.167969,257.773438 C111.167969,253.923809 112.174306,250.091816 114.187012,246.277344 C116.199717,242.462872 118.717758,239.518565 121.741211,237.444336 C124.764664,235.370107 127.717759,234.333008 130.600586,234.333008 C131.6377,234.333008 132.666011,234.447264 133.685547,234.675781 C134.125002,234.781251 135.935531,235.38769 139.117188,236.495117 C138.115229,239.51857 137.552735,242.638656 137.429688,245.855469 Z M151.74707,243.825195 C153.469735,243.825195 154.902338,244.510735 156.044922,245.881836 C157.187506,247.252937 157.758789,249.160144 157.758789,251.603516 C157.758789,255.505879 156.387709,259.008285 153.645508,262.11084 C150.903307,265.213394 148.002945,266.764648 144.944336,266.764648 C143.063467,266.764648 141.547369,266.14942 140.395996,264.918945 C139.244623,263.68847 138.668945,262.009776 138.668945,259.882812 C138.668945,256.191388 139.723622,252.781266 141.833008,249.652344 C144.487318,245.767559 147.791972,243.825195 151.74707,243.825195 Z M149.505859,245.802734 C148.011711,245.802734 146.565925,246.870595 145.168457,249.006348 C143.770989,251.142101 143.072266,254.090802 143.072266,257.852539 C143.072266,260.137707 143.502925,261.939447 144.364258,263.257812 C144.997073,264.224614 145.840815,264.708008 146.895508,264.708008 C148.372078,264.708008 149.716791,263.793954 150.929688,261.96582 C152.47657,259.592762 153.25,256.648455 153.25,253.132812 C153.25,250.496081 152.894047,248.61524 152.182129,247.490234 C151.470211,246.365229 150.57813,245.802734 149.505859,245.802734 Z M161.054688,249.995117 L160.158203,249.072266 C162.408214,246.927724 164.201165,245.50391 165.537109,244.800781 C166.873054,244.097653 168.01562,243.746094 168.964844,243.746094 C169.333986,243.746094 169.624022,243.825195 169.834961,243.983398 C170.045899,244.141602 170.151367,244.326171 170.151367,244.537109 C170.151367,244.695313 170.107422,244.97656 170.019531,245.380859 L168.833008,250.680664 C170.625986,248.694326 172.875963,246.839852 175.583008,245.117188 C177.024421,244.220699 178.210933,243.772461 179.142578,243.772461 C179.828128,243.772461 180.364256,243.992185 180.750977,244.431641 C181.137697,244.871096 181.331055,245.503902 181.331055,246.330078 C181.331055,246.875003 181.251954,247.490231 181.09375,248.175781 C180.812499,249.318365 180.074225,251.805645 178.878906,255.637695 C177.753901,259.223651 177.191406,261.605463 177.191406,262.783203 C177.191406,263.134767 177.24414,263.398437 177.349609,263.574219 C177.455079,263.750001 177.604491,263.837891 177.797852,263.837891 C178.30762,263.837891 179.107416,263.345708 180.197266,262.361328 C180.970707,261.6582 181.744137,261.007815 182.517578,260.410156 L183.176758,261.359375 C181.559562,263.152353 179.880868,264.593745 178.140625,265.683594 C177.033198,266.386722 176.119144,266.738281 175.398438,266.738281 C174.730465,266.738281 174.211916,266.496584 173.842773,266.013184 C173.473631,265.529783 173.289062,264.74317 173.289062,263.65332 C173.289062,262.088859 174.264639,258.195344 176.21582,251.972656 C176.81348,249.757801 177.112305,248.465822 177.112305,248.09668 C177.112305,247.551755 176.787113,247.279297 176.136719,247.279297 C175.43359,247.279297 174.528326,247.648434 173.420898,248.386719 C171.768546,249.476568 170.388677,250.759758 169.28125,252.236328 C168.578121,253.185552 167.98926,254.697255 167.514648,256.771484 L165.378906,265.973633 L161.450195,265.973633 C162.18848,263.336901 162.830075,260.814465 163.375,258.40625 L165.72168,248.386719 C165.809571,247.98242 165.853516,247.692384 165.853516,247.516602 C165.853516,247.04199 165.677736,246.804688 165.326172,246.804688 C165.04492,246.804688 164.640628,246.989256 164.113281,247.358398 C163.023432,248.079105 162.003911,248.958003 161.054688,249.995117 Z M196.676758,243.798828 C198.241219,243.798828 199.449703,244.102048 200.302246,244.708496 C201.154789,245.314944 201.581055,246.013668 201.581055,246.804688 C201.581055,247.279299 201.400881,247.692381 201.040527,248.043945 C200.680174,248.39551 200.24512,248.571289 199.735352,248.571289 C199.401366,248.571289 199.111329,248.496583 198.865234,248.347168 C198.619139,248.197753 198.26758,247.824222 197.810547,247.226562 C196.949214,246.083979 196.096684,245.512695 195.25293,245.512695 C194.532223,245.512695 193.895022,245.789548 193.341309,246.343262 C192.787595,246.896975 192.510742,247.58691 192.510742,248.413086 C192.510742,249.133793 192.686522,249.832516 193.038086,250.509277 C193.38965,251.186039 194.277337,252.280266 195.701172,253.791992 C197.652354,255.866221 198.62793,257.834952 198.62793,259.698242 C198.62793,261.561533 197.836922,263.191888 196.254883,264.589355 C194.672844,265.986823 192.633802,266.685547 190.137695,266.685547 C188.045888,266.685547 186.490239,266.259282 185.470703,265.406738 C184.451167,264.554195 183.941406,263.503912 183.941406,262.255859 C183.941406,261.640622 184.134764,261.130861 184.521484,260.726562 C184.908205,260.322264 185.38281,260.120117 185.945312,260.120117 C186.437502,260.120117 186.859373,260.282713 187.210938,260.60791 C187.562502,260.933107 187.738281,261.315427 187.738281,261.754883 C187.738281,261.930665 187.720703,262.159178 187.685547,262.44043 C187.667969,262.668946 187.65918,262.862304 187.65918,263.020508 C187.65918,263.600589 187.905271,264.092771 188.397461,264.49707 C188.872073,264.901369 189.522457,265.103516 190.348633,265.103516 C191.297856,265.103516 192.132809,264.94092 192.853516,264.615723 C193.574222,264.290526 194.136717,263.798343 194.541016,263.13916 C194.945315,262.479977 195.147461,261.825199 195.147461,261.174805 C195.147461,260.541989 194.958498,259.909183 194.580566,259.276367 C194.202635,258.643552 193.354499,257.597664 192.036133,256.138672 C190.207999,254.099599 189.293945,252.139658 189.293945,250.258789 C189.293945,248.536124 189.988274,247.028815 191.376953,245.736816 C192.765632,244.444818 194.532216,243.798828 196.676758,243.798828 Z M209.754883,239.764648 L213.947266,238.15625 L212.048828,245.539062 L217.506836,245.539062 L217.084961,247.411133 L211.626953,247.411133 L209.306641,256.244141 C208.585934,258.898451 208.225586,260.744135 208.225586,261.78125 C208.225586,262.255862 208.326659,262.598632 208.528809,262.80957 C208.730958,263.020509 209.007811,263.125977 209.359375,263.125977 C209.9043,263.125977 210.739252,262.800785 211.864258,262.150391 C213.340828,261.289058 214.747064,260.313482 216.083008,259.223633 L217.084961,260.436523 C213.235332,263.336929 210.660163,265.112301 209.359375,265.762695 C208.058587,266.413089 207.012699,266.738281 206.22168,266.738281 C205.571286,266.738281 205.057131,266.500979 204.679199,266.026367 C204.301268,265.551755 204.112305,264.778326 204.112305,263.706055 C204.112305,262.440423 204.446286,260.506849 205.114258,257.905273 L207.830078,247.411133 L203.558594,247.411133 L204.033203,245.539062 L208.27832,245.539062 L209.754883,239.764648 Z M224.520508,266 L220.591797,266 L222.4375,258.907227 C223.333989,255.42674 224.116208,252.122086 224.78418,248.993164 C224.942384,248.219723 225.021484,247.736329 225.021484,247.542969 C225.021484,247.121092 224.828127,246.910156 224.441406,246.910156 C224.177733,246.910156 223.77344,247.09033 223.228516,247.450684 C222.683591,247.811037 221.699226,248.703118 220.275391,250.126953 L219.458008,249.204102 C221.145516,247.393546 222.828605,246.035649 224.507324,245.130371 C226.186044,244.225093 227.473628,243.772461 228.370117,243.772461 C228.686525,243.772461 228.937011,243.847167 229.121582,243.996582 C229.306153,244.145997 229.398438,244.33496 229.398438,244.563477 C229.398438,244.791993 229.284181,245.398433 229.055664,246.382812 L227.921875,251.102539 C229.697275,248.307603 231.701161,245.917002 233.933594,243.930664 C235.005865,242.981441 235.90234,242.506836 236.623047,242.506836 C237.150393,242.506836 237.589842,242.678221 237.941406,243.020996 C238.292971,243.363771 238.46875,243.76367 238.46875,244.220703 C238.46875,244.695315 238.297365,245.099608 237.95459,245.433594 C237.611815,245.76758 236.75489,246.163084 235.383789,246.620117 C234.083001,247.059573 233.02393,247.586911 232.206543,248.202148 C231.389156,248.817386 230.492681,249.757806 229.51709,251.023438 C228.541499,252.289069 227.860353,253.392085 227.473633,254.33252 C227.086912,255.272954 226.498051,257.457014 225.707031,260.884766 L224.520508,266 Z M253.65625,244.537109 L257.400391,244.537109 L254.921875,253.739258 C253.462883,259.083035 252.733398,262.12402 252.733398,262.862305 C252.733398,263.196291 252.812499,263.451171 252.970703,263.626953 C253.128907,263.802735 253.304687,263.890625 253.498047,263.890625 C253.796876,263.890625 254.148435,263.75879 254.552734,263.495117 C255.132815,263.090818 256.231437,262.071297 257.848633,260.436523 L258.71875,261.412109 C255.185529,265.085956 252.583993,266.922852 250.914062,266.922852 C250.35156,266.922852 249.872561,266.707522 249.477051,266.276855 C249.081541,265.846189 248.883789,265.235356 248.883789,264.444336 C248.883789,263.530269 249.077147,262.308601 249.463867,260.779297 C247.899406,262.572275 245.965832,264.145501 243.663086,265.499023 C242.133781,266.395512 240.806646,266.84375 239.681641,266.84375 C239.066403,266.84375 238.58301,266.641604 238.231445,266.237305 C237.879881,265.833006 237.704102,265.191411 237.704102,264.3125 C237.704102,263.62695 237.783202,262.888676 237.941406,262.097656 C238.169923,260.990229 238.749995,258.766618 239.681641,255.426758 C240.859381,251.190409 241.448242,248.650395 241.448242,247.806641 C241.448242,247.314451 241.272463,247.068359 240.920898,247.068359 C240.604491,247.068359 240.173831,247.230955 239.628906,247.556152 C239.083982,247.881349 238.15235,248.667963 236.833984,249.916016 L235.673828,248.993164 C238.029309,246.883779 239.826654,245.499515 241.065918,244.840332 C242.305182,244.181149 243.302731,243.851562 244.058594,243.851562 C244.480471,243.851562 244.823241,244.00537 245.086914,244.312988 C245.350587,244.620607 245.482422,245.099606 245.482422,245.75 C245.482422,246.962897 244.849616,249.942359 243.583984,254.688477 C242.458979,258.959982 241.896484,261.394528 241.896484,261.992188 C241.896484,262.36133 242.015136,262.677733 242.252441,262.941406 C242.489747,263.205079 242.749022,263.336914 243.030273,263.336914 C244.014653,263.336914 245.4121,262.523934 247.222656,260.897949 C249.033212,259.271965 250.219724,257.421885 250.782227,255.347656 L253.65625,244.537109 Z M275.145508,260.27832 L275.699219,261.807617 C271.515604,265.094743 267.982436,266.738281 265.099609,266.738281 C263.570305,266.738281 262.4585,266.193365 261.76416,265.103516 C261.069821,264.013666 260.722656,262.633797 260.722656,260.963867 C260.722656,258.18651 261.46093,255.330093 262.9375,252.394531 C264.41407,249.45897 266.207021,247.208992 268.316406,245.644531 C269.968758,244.431635 271.832021,243.825195 273.90625,243.825195 C275.207038,243.825195 276.191403,244.071287 276.859375,244.563477 C277.527347,245.055667 277.861328,245.653317 277.861328,246.356445 C277.861328,246.90137 277.685549,247.345213 277.333984,247.687988 C276.98242,248.030763 276.490238,248.202148 275.857422,248.202148 C275.242184,248.202148 274.451177,247.920901 273.484375,247.358398 C272.482417,246.760739 271.647464,246.461914 270.979492,246.461914 C270.11816,246.461914 269.261235,246.853023 268.408691,247.635254 C267.556148,248.417484 266.743168,249.933582 265.969727,252.183594 C265.196285,254.433605 264.80957,256.692371 264.80957,258.959961 C264.80957,260.629891 265.134762,261.92187 265.785156,262.835938 C266.259768,263.539066 266.92773,263.890625 267.789062,263.890625 C269.845713,263.890625 272.297837,262.686535 275.145508,260.27832 Z M286.404297,239.764648 L290.59668,238.15625 L288.698242,245.539062 L294.15625,245.539062 L293.734375,247.411133 L288.276367,247.411133 L285.956055,256.244141 C285.235348,258.898451 284.875,260.744135 284.875,261.78125 C284.875,262.255862 284.976073,262.598632 285.178223,262.80957 C285.380372,263.020509 285.657225,263.125977 286.008789,263.125977 C286.553714,263.125977 287.388666,262.800785 288.513672,262.150391 C289.990242,261.289058 291.396478,260.313482 292.732422,259.223633 L293.734375,260.436523 C289.884746,263.336929 287.309577,265.112301 286.008789,265.762695 C284.708001,266.413089 283.662113,266.738281 282.871094,266.738281 C282.2207,266.738281 281.706545,266.500979 281.328613,266.026367 C280.950682,265.551755 280.761719,264.778326 280.761719,263.706055 C280.761719,262.440423 281.0957,260.506849 281.763672,257.905273 L284.479492,247.411133 L280.208008,247.411133 L280.682617,245.539062 L284.927734,245.539062 L286.404297,239.764648 Z M307.524414,232.487305 C308.069339,232.487305 308.517576,232.667479 308.869141,233.027832 C309.220705,233.388185 309.396484,233.849607 309.396484,234.412109 C309.396484,235.185551 309.128421,235.866696 308.592285,236.455566 C308.05615,237.044437 307.454105,237.338867 306.786133,237.338867 C306.258786,237.338867 305.819338,237.154299 305.467773,236.785156 C305.116209,236.416014 304.94043,235.93262 304.94043,235.334961 C304.94043,234.543941 305.19531,233.871585 305.705078,233.317871 C306.214846,232.764157 306.821286,232.487305 307.524414,232.487305 Z M297.135742,249.942383 L295.975586,249.045898 C297.733407,247.112295 299.337395,245.73682 300.787598,244.919434 C302.2378,244.102047 303.472651,243.693359 304.492188,243.693359 C305.05469,243.693359 305.48535,243.816405 305.78418,244.0625 C306.083009,244.308595 306.232422,244.642576 306.232422,245.064453 C306.232422,245.574221 305.661139,247.736309 304.518555,251.550781 C302.655264,257.791047 301.723633,261.552728 301.723633,262.835938 C301.723633,263.082032 301.785156,263.288573 301.908203,263.455566 C302.031251,263.622559 302.163085,263.706055 302.303711,263.706055 C302.866214,263.706055 304.307606,262.616222 306.62793,260.436523 L307.65625,261.438477 C305.248035,263.706066 303.49024,265.156247 302.382812,265.789062 C301.275385,266.421878 300.370121,266.738281 299.666992,266.738281 C299.051755,266.738281 298.563967,266.544924 298.203613,266.158203 C297.84326,265.771482 297.663086,265.235355 297.663086,264.549805 C297.663086,262.352528 298.981432,256.982465 301.618164,248.439453 C301.741212,248.035154 301.802734,247.674806 301.802734,247.358398 C301.802734,247.006834 301.644533,246.831055 301.328125,246.831055 C300.976561,246.831055 300.576662,246.971678 300.128418,247.25293 C299.680174,247.534181 298.682625,248.430657 297.135742,249.942383 Z M322.316406,243.825195 C324.039071,243.825195 325.471674,244.510735 326.614258,245.881836 C327.756842,247.252937 328.328125,249.160144 328.328125,251.603516 C328.328125,255.505879 326.957045,259.008285 324.214844,262.11084 C321.472643,265.213394 318.572281,266.764648 315.513672,266.764648 C313.632803,266.764648 312.116705,266.14942 310.965332,264.918945 C309.813959,263.68847 309.238281,262.009776 309.238281,259.882812 C309.238281,256.191388 310.292958,252.781266 312.402344,249.652344 C315.056654,245.767559 318.361308,243.825195 322.316406,243.825195 Z M320.075195,245.802734 C318.581047,245.802734 317.135261,246.870595 315.737793,249.006348 C314.340325,251.142101 313.641602,254.090802 313.641602,257.852539 C313.641602,260.137707 314.072261,261.939447 314.933594,263.257812 C315.566409,264.224614 316.410151,264.708008 317.464844,264.708008 C318.941414,264.708008 320.286127,263.793954 321.499023,261.96582 C323.045906,259.592762 323.819336,256.648455 323.819336,253.132812 C323.819336,250.496081 323.463382,248.61524 322.751465,247.490234 C322.039547,246.365229 321.147466,245.802734 320.075195,245.802734 Z M331.624023,249.995117 L330.727539,249.072266 C332.97755,246.927724 334.770501,245.50391 336.106445,244.800781 C337.442389,244.097653 338.584956,243.746094 339.53418,243.746094 C339.903322,243.746094 340.193358,243.825195 340.404297,243.983398 C340.615235,244.141602 340.720703,244.326171 340.720703,244.537109 C340.720703,244.695313 340.676758,244.97656 340.588867,245.380859 L339.402344,250.680664 C341.195321,248.694326 343.445299,246.839852 346.152344,245.117188 C347.593757,244.220699 348.780269,243.772461 349.711914,243.772461 C350.397464,243.772461 350.933592,243.992185 351.320312,244.431641 C351.707033,244.871096 351.900391,245.503902 351.900391,246.330078 C351.900391,246.875003 351.82129,247.490231 351.663086,248.175781 C351.381835,249.318365 350.643561,251.805645 349.448242,255.637695 C348.323237,259.223651 347.760742,261.605463 347.760742,262.783203 C347.760742,263.134767 347.813476,263.398437 347.918945,263.574219 C348.024415,263.750001 348.173827,263.837891 348.367188,263.837891 C348.876956,263.837891 349.676752,263.345708 350.766602,262.361328 C351.540043,261.6582 352.313473,261.007815 353.086914,260.410156 L353.746094,261.359375 C352.128898,263.152353 350.450204,264.593745 348.709961,265.683594 C347.602534,266.386722 346.68848,266.738281 345.967773,266.738281 C345.299801,266.738281 344.781252,266.496584 344.412109,266.013184 C344.042967,265.529783 343.858398,264.74317 343.858398,263.65332 C343.858398,262.088859 344.833975,258.195344 346.785156,251.972656 C347.382815,249.757801 347.681641,248.465822 347.681641,248.09668 C347.681641,247.551755 347.356449,247.279297 346.706055,247.279297 C346.002926,247.279297 345.097662,247.648434 343.990234,248.386719 C342.337882,249.476568 340.958013,250.759758 339.850586,252.236328 C339.147457,253.185552 338.558596,254.697255 338.083984,256.771484 L335.948242,265.973633 L332.019531,265.973633 C332.757816,263.336901 333.399411,260.814465 333.944336,258.40625 L336.291016,248.386719 C336.378907,247.98242 336.422852,247.692384 336.422852,247.516602 C336.422852,247.04199 336.247072,246.804688 335.895508,246.804688 C335.614256,246.804688 335.209964,246.989256 334.682617,247.358398 C333.592768,248.079105 332.573247,248.958003 331.624023,249.995117 Z" id="Construction" fill="#FFFFFF"></path>
        <path d="M623.429688,245.855469 L622.005859,245.855469 C622.09375,244.484368 622.137695,243.385746 622.137695,242.55957 C622.137695,240.081042 621.62354,238.354009 620.595215,237.378418 C619.566889,236.402827 618.270516,235.915039 616.706055,235.915039 C614.614247,235.915039 612.443371,236.763175 610.193359,238.459473 C607.943348,240.15577 606.009774,242.801252 604.392578,246.395996 C602.775383,249.990741 601.966797,253.686504 601.966797,257.483398 C601.966797,261.157245 602.718254,263.974111 604.221191,265.934082 C605.724129,267.894053 607.609364,268.874023 609.876953,268.874023 C612.95314,268.874023 615.774401,267.028339 618.34082,263.336914 C618.604494,262.967772 618.876952,262.783203 619.158203,262.783203 C619.38672,262.783203 619.580077,262.857909 619.738281,263.007324 C619.896485,263.156739 619.975586,263.328124 619.975586,263.521484 C619.975586,263.996096 619.391119,264.927727 618.222168,266.316406 C617.053217,267.705085 615.581064,268.860835 613.805664,269.783691 C612.030265,270.706548 610.281259,271.167969 608.558594,271.167969 C606.484365,271.167969 604.559579,270.627447 602.78418,269.546387 C601.00878,268.465327 599.628911,266.922862 598.644531,264.918945 C597.660151,262.915029 597.167969,260.533217 597.167969,257.773438 C597.167969,253.923809 598.174306,250.091816 600.187012,246.277344 C602.199717,242.462872 604.717758,239.518565 607.741211,237.444336 C610.764664,235.370107 613.717759,234.333008 616.600586,234.333008 C617.6377,234.333008 618.666011,234.447264 619.685547,234.675781 C620.125002,234.781251 621.935531,235.38769 625.117188,236.495117 C624.115229,239.51857 623.552735,242.638656 623.429688,245.855469 Z M637.74707,243.825195 C639.469735,243.825195 640.902338,244.510735 642.044922,245.881836 C643.187506,247.252937 643.758789,249.160144 643.758789,251.603516 C643.758789,255.505879 642.387709,259.008285 639.645508,262.11084 C636.903307,265.213394 634.002945,266.764648 630.944336,266.764648 C629.063467,266.764648 627.547369,266.14942 626.395996,264.918945 C625.244623,263.68847 624.668945,262.009776 624.668945,259.882812 C624.668945,256.191388 625.723622,252.781266 627.833008,249.652344 C630.487318,245.767559 633.791972,243.825195 637.74707,243.825195 Z M635.505859,245.802734 C634.011711,245.802734 632.565925,246.870595 631.168457,249.006348 C629.770989,251.142101 629.072266,254.090802 629.072266,257.852539 C629.072266,260.137707 629.502925,261.939447 630.364258,263.257812 C630.997073,264.224614 631.840815,264.708008 632.895508,264.708008 C634.372078,264.708008 635.716791,263.793954 636.929688,261.96582 C638.47657,259.592762 639.25,256.648455 639.25,253.132812 C639.25,250.496081 638.894047,248.61524 638.182129,247.490234 C637.470211,246.365229 636.57813,245.802734 635.505859,245.802734 Z M646.975586,249.889648 L646.18457,248.834961 C647.924813,247.094718 649.577141,245.811528 651.141602,244.985352 C652.706063,244.159176 653.936519,243.746094 654.833008,243.746094 C655.20215,243.746094 655.479003,243.825195 655.663574,243.983398 C655.848145,244.141602 655.94043,244.361327 655.94043,244.642578 C655.94043,244.994142 655.799806,245.670893 655.518555,246.672852 C655.114256,248.149421 654.833009,249.318355 654.674805,250.179688 C658.893576,245.890604 662.119129,243.746094 664.351562,243.746094 C664.931644,243.746094 665.371092,243.904295 665.669922,244.220703 C665.968751,244.537111 666.118164,245.038083 666.118164,245.723633 C666.118164,246.461918 665.854495,247.718741 665.327148,249.494141 C667.331065,247.402333 669.071282,245.921391 670.547852,245.05127 C672.024421,244.181148 673.175777,243.746094 674.001953,243.746094 C674.740238,243.746094 675.311521,243.957029 675.71582,244.378906 C676.120119,244.800783 676.322266,245.451167 676.322266,246.330078 C676.322266,246.857425 676.234376,247.481442 676.058594,248.202148 C675.882812,248.922855 675.241216,251.120099 674.133789,254.793945 C672.74511,259.346702 672.050781,262.062496 672.050781,262.941406 C672.050781,263.539065 672.296873,263.837891 672.789062,263.837891 C673.123049,263.837891 673.448241,263.732423 673.764648,263.521484 C674.801763,262.783199 675.865229,261.869146 676.955078,260.779297 L677.825195,261.728516 C677.456053,262.027345 676.761724,262.642573 675.742188,263.574219 C674.33593,264.83985 673.369143,265.630858 672.841797,265.947266 C671.822261,266.544925 670.960941,266.84375 670.257812,266.84375 C669.730466,266.84375 669.26465,266.584475 668.860352,266.065918 C668.456053,265.547361 668.253906,264.831059 668.253906,263.916992 C668.253906,263.073238 668.376952,262.084478 668.623047,260.950684 C668.869142,259.816889 669.589838,257.272481 670.785156,253.317383 C671.681645,250.346665 672.129883,248.544925 672.129883,247.912109 C672.129883,247.31445 671.866214,247.015625 671.338867,247.015625 C670.899412,247.015625 670.310551,247.235349 669.572266,247.674805 C668.060539,248.588872 666.794927,249.705072 665.775391,251.023438 C665.072262,251.937505 664.457034,253.387685 663.929688,255.374023 C662.751947,259.715842 661.87305,263.257799 661.292969,266 L657.548828,266 L661.477539,249.889648 C661.75879,248.729486 661.899414,248.061524 661.899414,247.885742 C661.899414,247.604491 661.829102,247.389161 661.688477,247.239746 C661.547851,247.090331 661.345704,247.015625 661.082031,247.015625 C660.60742,247.015625 659.869146,247.384762 658.867188,248.123047 C657.126944,249.3711 655.874516,250.579584 655.109863,251.748535 C654.345211,252.917486 653.690432,254.697254 653.145508,257.087891 L651.115234,266 L647.344727,266 L650.324219,253.422852 C651.203129,249.784161 651.642578,247.806642 651.642578,247.490234 C651.642578,247.085935 651.484377,246.883789 651.167969,246.883789 C650.482418,246.883789 649.084971,247.885732 646.975586,249.889648 Z M680.145508,250.364258 L679.117188,249.30957 C680.716805,247.393545 682.307609,245.97852 683.889648,245.064453 C685.471688,244.150386 686.842768,243.693359 688.00293,243.693359 C688.442385,243.693359 688.78955,243.803222 689.044434,244.022949 C689.299318,244.242677 689.426758,244.563474 689.426758,244.985352 C689.426758,245.49512 689.369629,246.018064 689.255371,246.554199 C689.141113,247.090335 688.785159,248.360342 688.1875,250.364258 C690.876967,247.674791 692.713862,246.013675 693.698242,245.380859 C695.350594,244.308588 696.862298,243.772461 698.233398,243.772461 C699.129887,243.772461 699.885739,244.194332 700.500977,245.038086 C701.116214,245.88184 701.423828,247.156241 701.423828,248.861328 C701.423828,253.115256 700.096693,257.158184 697.442383,260.990234 C694.788073,264.822285 691.852555,266.738281 688.635742,266.738281 C687.370111,266.738281 686.104499,266.395511 684.838867,265.709961 L682.597656,274.411133 C682.457031,274.938479 682.386719,275.369139 682.386719,275.703125 C682.386719,276.353519 682.63281,276.819335 683.125,277.100586 C683.880863,277.540041 685.471668,277.900389 687.897461,278.181641 L687.554688,279.5 C684.724595,279.271483 682.500985,279.157227 680.883789,279.157227 C679.213859,279.157227 677.051771,279.271483 674.397461,279.5 L674.740234,278.181641 C676.076179,278.041015 677.04736,277.671878 677.653809,277.074219 C678.260257,276.47656 678.748045,275.413094 679.117188,273.883789 L683.889648,253.871094 C684.786137,250.144513 685.234375,248.070315 685.234375,247.648438 C685.234375,247.191404 685.014651,246.962891 684.575195,246.962891 C683.801754,246.962891 682.325206,248.096668 680.145508,250.364258 Z M685.47168,262.80957 C686.860359,264.198249 688.284172,264.892578 689.743164,264.892578 C691.85255,264.892578 693.702629,263.24904 695.293457,259.961914 C696.884285,256.674788 697.679688,253.466813 697.679688,250.337891 C697.679688,249.335932 697.455569,248.575686 697.007324,248.057129 C696.55908,247.538572 695.957035,247.279297 695.201172,247.279297 C694.357418,247.279297 693.408208,247.692379 692.353516,248.518555 C690.718742,249.801764 689.470707,251.076166 688.609375,252.341797 C687.994138,253.255864 687.414065,254.837879 686.869141,257.087891 L685.47168,262.80957 Z M721.489258,243.376953 L723.229492,243.007812 L721.251953,249.678711 C720.460934,252.333021 719.713871,255.391584 719.010742,258.854492 C718.624022,260.735361 718.430664,261.948239 718.430664,262.493164 C718.430664,263.038089 718.650388,263.310547 719.089844,263.310547 C719.371095,263.310547 719.819333,263.125978 720.43457,262.756836 C721.52442,262.106442 722.570307,261.297856 723.572266,260.331055 L724.416016,261.359375 C722.412099,263.187509 721.128909,264.29492 720.566406,264.681641 C719.441401,265.455082 718.369146,266.026365 717.349609,266.395508 C716.681637,266.641603 716.031253,266.764648 715.398438,266.764648 C714.941404,266.764648 714.598634,266.659181 714.370117,266.448242 C714.1416,266.237304 714.027344,265.92969 714.027344,265.525391 C714.027344,265.261717 714.097656,264.901369 714.238281,264.444336 L715.292969,260.858398 C713.781242,262.668954 711.979503,264.224603 709.887695,265.525391 C708.604486,266.333988 707.426763,266.738281 706.354492,266.738281 C705.334956,266.738281 704.552737,266.377933 704.007812,265.657227 C703.269528,264.690425 702.900391,263.424813 702.900391,261.860352 C702.900391,259.997061 703.396968,257.922863 704.390137,255.637695 C705.383306,253.352528 706.714835,251.27833 708.384766,249.415039 C710.054696,247.551748 711.812491,246.180668 713.658203,245.301758 C715.082038,244.633786 716.910145,244.299805 719.142578,244.299805 C719.705081,244.299805 720.276364,244.334961 720.856445,244.405273 L721.489258,243.376953 Z M718.219727,247.411133 C717.270503,247.217772 716.470706,247.121094 715.820312,247.121094 C714.238273,247.121094 712.858404,247.556148 711.680664,248.42627 C710.502924,249.296391 709.408696,250.860829 708.397949,253.119629 C707.387202,255.378429 706.881836,257.632801 706.881836,259.882812 C706.881836,261.078131 707.083982,261.93945 707.488281,262.466797 C707.89258,262.994143 708.419919,263.257812 709.070312,263.257812 C710.283209,263.257812 711.583977,262.603034 712.972656,261.293457 C714.361335,259.98388 715.380856,258.098645 716.03125,255.637695 L718.219727,247.411133 Z M726.973633,249.995117 L726.077148,249.072266 C728.32716,246.927724 730.120111,245.50391 731.456055,244.800781 C732.791999,244.097653 733.934566,243.746094 734.883789,243.746094 C735.252932,243.746094 735.542968,243.825195 735.753906,243.983398 C735.964845,244.141602 736.070312,244.326171 736.070312,244.537109 C736.070312,244.695313 736.026368,244.97656 735.938477,245.380859 L734.751953,250.680664 C736.544931,248.694326 738.794908,246.839852 741.501953,245.117188 C742.943367,244.220699 744.129878,243.772461 745.061523,243.772461 C745.747074,243.772461 746.283201,243.992185 746.669922,244.431641 C747.056643,244.871096 747.25,245.503902 747.25,246.330078 C747.25,246.875003 747.170899,247.490231 747.012695,248.175781 C746.731444,249.318365 745.99317,251.805645 744.797852,255.637695 C743.672846,259.223651 743.110352,261.605463 743.110352,262.783203 C743.110352,263.134767 743.163085,263.398437 743.268555,263.574219 C743.374024,263.750001 743.523437,263.837891 743.716797,263.837891 C744.226565,263.837891 745.026362,263.345708 746.116211,262.361328 C746.889652,261.6582 747.663082,261.007815 748.436523,260.410156 L749.095703,261.359375 C747.478508,263.152353 745.799813,264.593745 744.05957,265.683594 C742.952143,266.386722 742.03809,266.738281 741.317383,266.738281 C740.649411,266.738281 740.130861,266.496584 739.761719,266.013184 C739.392576,265.529783 739.208008,264.74317 739.208008,263.65332 C739.208008,262.088859 740.183584,258.195344 742.134766,251.972656 C742.732425,249.757801 743.03125,248.465822 743.03125,248.09668 C743.03125,247.551755 742.706058,247.279297 742.055664,247.279297 C741.352536,247.279297 740.447271,247.648434 739.339844,248.386719 C737.687492,249.476568 736.307623,250.759758 735.200195,252.236328 C734.497067,253.185552 733.908205,254.697255 733.433594,256.771484 L731.297852,265.973633 L727.369141,265.973633 C728.107426,263.336901 728.749021,260.814465 729.293945,258.40625 L731.640625,248.386719 C731.728516,247.98242 731.772461,247.692384 731.772461,247.516602 C731.772461,247.04199 731.596681,246.804688 731.245117,246.804688 C730.963866,246.804688 730.559573,246.989256 730.032227,247.358398 C728.942377,248.079105 727.922856,248.958003 726.973633,249.995117 Z M762.25293,232.487305 C762.797854,232.487305 763.246092,232.667479 763.597656,233.027832 C763.949221,233.388185 764.125,233.849607 764.125,234.412109 C764.125,235.185551 763.856936,235.866696 763.320801,236.455566 C762.784665,237.044437 762.182621,237.338867 761.514648,237.338867 C760.987302,237.338867 760.547853,237.154299 760.196289,236.785156 C759.844725,236.416014 759.668945,235.93262 759.668945,235.334961 C759.668945,234.543941 759.923826,233.871585 760.433594,233.317871 C760.943362,232.764157 761.549801,232.487305 762.25293,232.487305 Z M751.864258,249.942383 L750.704102,249.045898 C752.461923,247.112295 754.065911,245.73682 755.516113,244.919434 C756.966316,244.102047 758.201167,243.693359 759.220703,243.693359 C759.783206,243.693359 760.213866,243.816405 760.512695,244.0625 C760.811525,244.308595 760.960938,244.642576 760.960938,245.064453 C760.960938,245.574221 760.389654,247.736309 759.24707,251.550781 C757.38378,257.791047 756.452148,261.552728 756.452148,262.835938 C756.452148,263.082032 756.513671,263.288573 756.636719,263.455566 C756.759766,263.622559 756.891601,263.706055 757.032227,263.706055 C757.594729,263.706055 759.036121,262.616222 761.356445,260.436523 L762.384766,261.438477 C759.97655,263.706066 758.218756,265.156247 757.111328,265.789062 C756.003901,266.421878 755.098636,266.738281 754.395508,266.738281 C753.78027,266.738281 753.292482,266.544924 752.932129,266.158203 C752.571776,265.771482 752.391602,265.235355 752.391602,264.549805 C752.391602,262.352528 753.709948,256.982465 756.34668,248.439453 C756.469727,248.035154 756.53125,247.674806 756.53125,247.358398 C756.53125,247.006834 756.373048,246.831055 756.056641,246.831055 C755.705076,246.831055 755.305178,246.971678 754.856934,247.25293 C754.408689,247.534181 753.411141,248.430657 751.864258,249.942383 Z M777.783203,259.381836 L778.65332,260.541992 C774.346658,264.637716 770.655289,266.685547 767.579102,266.685547 C766.331048,266.685547 765.377445,266.263676 764.718262,265.419922 C764.059079,264.576168 763.729492,263.222666 763.729492,261.359375 C763.729492,257.597637 764.872059,253.853534 767.157227,250.126953 C769.723646,245.890604 772.790998,243.772461 776.359375,243.772461 C777.607428,243.772461 778.561032,244.08447 779.220215,244.708496 C779.879398,245.332523 780.208984,246.189448 780.208984,247.279297 C780.208984,248.421881 779.813481,249.546869 779.022461,250.654297 C778.231441,251.761724 776.816416,252.91308 774.777344,254.108398 C773.757807,254.688479 771.578142,255.734367 768.238281,257.246094 C768.080077,258.195317 768.000977,259.100582 768.000977,259.961914 C768.000977,261.209967 768.198728,262.080076 768.594238,262.572266 C768.989748,263.064456 769.565426,263.310547 770.321289,263.310547 C771.041996,263.310547 771.833004,263.1084 772.694336,262.704102 C773.854498,262.159177 775.55077,261.051766 777.783203,259.381836 Z M768.554688,255.558594 C771.38478,254.292962 773.511712,252.930671 774.935547,251.47168 C775.902349,250.452143 776.385742,249.441411 776.385742,248.439453 C776.385742,247.68359 776.18799,247.081545 775.79248,246.633301 C775.396971,246.185056 774.882816,245.960938 774.25,245.960938 C773.599606,245.960938 772.9668,246.207029 772.351562,246.699219 C771.525386,247.349613 770.831058,248.333978 770.268555,249.652344 C769.459957,251.585947 768.888674,253.554677 768.554688,255.558594 Z M793.893555,243.798828 C795.458016,243.798828 796.6665,244.102048 797.519043,244.708496 C798.371586,245.314944 798.797852,246.013668 798.797852,246.804688 C798.797852,247.279299 798.617678,247.692381 798.257324,248.043945 C797.896971,248.39551 797.461917,248.571289 796.952148,248.571289 C796.618162,248.571289 796.328126,248.496583 796.082031,248.347168 C795.835936,248.197753 795.484377,247.824222 795.027344,247.226562 C794.166011,246.083979 793.313481,245.512695 792.469727,245.512695 C791.74902,245.512695 791.111819,245.789548 790.558105,246.343262 C790.004392,246.896975 789.727539,247.58691 789.727539,248.413086 C789.727539,249.133793 789.903319,249.832516 790.254883,250.509277 C790.606447,251.186039 791.494134,252.280266 792.917969,253.791992 C794.86915,255.866221 795.844727,257.834952 795.844727,259.698242 C795.844727,261.561533 795.053719,263.191888 793.47168,264.589355 C791.889641,265.986823 789.850598,266.685547 787.354492,266.685547 C785.262685,266.685547 783.707036,266.259282 782.6875,265.406738 C781.667964,264.554195 781.158203,263.503912 781.158203,262.255859 C781.158203,261.640622 781.351561,261.130861 781.738281,260.726562 C782.125002,260.322264 782.599607,260.120117 783.162109,260.120117 C783.654299,260.120117 784.07617,260.282713 784.427734,260.60791 C784.779299,260.933107 784.955078,261.315427 784.955078,261.754883 C784.955078,261.930665 784.9375,262.159178 784.902344,262.44043 C784.884766,262.668946 784.875977,262.862304 784.875977,263.020508 C784.875977,263.600589 785.122068,264.092771 785.614258,264.49707 C786.08887,264.901369 786.739254,265.103516 787.56543,265.103516 C788.514653,265.103516 789.349606,264.94092 790.070312,264.615723 C790.791019,264.290526 791.353514,263.798343 791.757812,263.13916 C792.162111,262.479977 792.364258,261.825199 792.364258,261.174805 C792.364258,260.541989 792.175295,259.909183 791.797363,259.276367 C791.419432,258.643552 790.571296,257.597664 789.25293,256.138672 C787.424796,254.099599 786.510742,252.139658 786.510742,250.258789 C786.510742,248.536124 787.205071,247.028815 788.59375,245.736816 C789.982429,244.444818 791.749013,243.798828 793.893555,243.798828 Z" id="Companies" fill="#FFFFFF"></path>
    </g>
</svg>